#N canvas 450 131 526 298 10;
#X obj 208 6 netreceive 8080;
#X obj 203 176 expr~ $v1*256*8000;
#X obj 203 198 s~ ramp;
#X obj 203 224 r~ wave;
#X obj 203 246 clip~ -1 1;
#X obj 203 268 dac~;
#X msg 75 128 \; pd-ex clear \, obj 0 0 r~ ramp \, obj 0 0 expr~ \$1
\, obj 0 0 s~ wave \, connect 0 0 1 0 \, connect 1 0 2 0 \;, f 16
;
#N canvas 1 57 450 300 ex 0;
#X restore 293 208 pd ex;
#X obj 75 108 list;
#X obj 5 5 loadbang;
#X obj 203 154 phasor~ 0.0039;
#X obj 203 127 / 256;
#X msg 5 26 \; pd-ex clear \; pd dsp 1 \;;
#X obj 373 263 writesf~;
#X obj 401 146 random 9999;
#X msg 369 201 start;
#X msg 346 154 stop;
#X msg 401 167 open /tmp/\$1.wav;
#X obj 369 102 t b b;
#X obj 208 31 route e p r rec;
#X obj 346 67 sel 0 1;
#X connect 0 0 19 0;
#X connect 1 0 2 0;
#X connect 3 0 4 0;
#X connect 4 0 5 0;
#X connect 4 0 5 1;
#X connect 4 0 13 0;
#X connect 8 0 6 0;
#X connect 9 0 12 0;
#X connect 10 0 1 0;
#X connect 11 0 10 0;
#X connect 14 0 17 0;
#X connect 15 0 13 0;
#X connect 16 0 13 0;
#X connect 17 0 13 0;
#X connect 18 0 15 0;
#X connect 18 1 14 0;
#X connect 19 0 8 0;
#X connect 19 1 11 0;
#X connect 19 2 10 1;
#X connect 19 3 20 0;
#X connect 20 0 16 0;
#X connect 20 1 18 0;
