#N canvas 354 129 813 444 10;
#X obj 8 153 r c\$1;
#X obj 553 -2 loadbang;
#X obj 9 238 r f\$1;
#X obj 9 328 r d\$1;
#X obj 389 238 r h\$1;
#X obj 389 328 r p\$1;
#X obj 389 148 r w\$1;
#X obj 154 59 soundfiler;
#X obj 154 -4 r l\$1;
#X obj 389 170 list prepend \$1;
#X obj 8 172 list prepend \$1;
#X obj 553 18 list prepend \$1;
#N canvas 205 433 366 71 code-\$1 0;
#X obj 0 0 code 0 0;
#X restore 454 -2 pd code-\$1;
#N canvas 149 371 366 71 fi-\$1 0;
#X obj 0 0 fi 0 0 0;
#X restore 454 18 pd fi-\$1;
#N canvas 151 371 366 71 d-\$1 0;
#X obj 0 0 d 0 0 1000;
#X restore 454 38 pd d-\$1;
#N canvas 105 389 366 71 h-\$1 0;
#X obj 0 0 h 0 0 0;
#X restore 454 58 pd h-\$1;
#N canvas 153 371 366 71 p-\$1 0;
#X obj 0 0 p 0 0.5;
#X restore 454 78 pd p-\$1;
#X obj 9 260 list prepend \$1;
#X obj 9 350 list prepend \$1;
#X obj 389 260 list prepend \$1;
#X obj 389 350 list prepend \$1;
#X msg 9 281 \; pd-fi-\$1 clear \, obj 0 0 fi \$1 \$2 \$3 \, obj 0
20 dummy \;;
#X msg 9 371 \; pd-d-\$1 clear \, obj 0 0 d \$1 \$2 \$3 \, obj 0 20
dummy \;;
#X msg 389 281 \; pd-h-\$1 clear \, obj 0 0 h \$1 \$2 \$3 \, obj 0
20 dummy \;;
#X msg 389 371 \; pd-p-\$1 clear \, obj 0 0 p \$1 \$2 \$3 \, obj 0
20 dummy \;;
#X obj 154 81 s~ \$1-samples;
#X obj 7 -4 array define \$1-wave;
#X obj 154 16 list prepend \$1;
#X msg 154 37 read -resize samples/\$2.wav \$1-wave;
#X msg 389 192 \; pd-code-\$1 clear \, obj 0 0 wave \$1 \$2 \$3 \,
obj 0 20 dummy \;;
#X msg 8 192 \; pd-code-\$1 clear \, obj 0 0 code \$1 \$2 \, obj 0
20 dummy \;;
#X msg 553 38 \; pd-code-\$1 clear \, obj 0 0 code \$1 0 \; pd-fi-\$1
clear \, obj 0 0 fi \$1 0 0 \; pd-d-\$1 clear \, obj 0 0 d \$1 0 0
\; pd-h-\$1 clear \, obj 0 0 h \$1 0 0 \; pd-p-\$1 clear \, obj 0 0
p \$1 0.5 \;;
#X connect 0 0 10 0;
#X connect 1 0 11 0;
#X connect 2 0 17 0;
#X connect 3 0 18 0;
#X connect 4 0 19 0;
#X connect 5 0 20 0;
#X connect 6 0 9 0;
#X connect 7 0 25 0;
#X connect 8 0 27 0;
#X connect 9 0 29 0;
#X connect 10 0 30 0;
#X connect 11 0 31 0;
#X connect 17 0 21 0;
#X connect 18 0 22 0;
#X connect 19 0 23 0;
#X connect 20 0 24 0;
#X connect 27 0 28 0;
#X connect 28 0 7 0;
