#N canvas 123 101 450 300 10;
#X obj 173 8 r~ ramp;
#X obj 64 238 clip~ -1 1;
#X obj 64 260 s~ tofi-\$1;
#X obj 238 82 noise~;
#X obj 238 104 *~ 0.5;
#X obj 238 126 +~ 0.5;
#X obj 238 148 samphold~;
#X obj 64 216 expr~ \$2+($v2*0);
#X obj 378 45 r~ ran\$1;
#X obj 303 70 expr~ $v1%$v2;
#X connect 0 0 7 0;
#X connect 0 0 9 0;
#X connect 1 0 2 0;
#X connect 3 0 4 0;
#X connect 4 0 5 0;
#X connect 5 0 6 0;
#X connect 6 0 7 1;
#X connect 7 0 1 0;
#X connect 8 0 9 1;
#X connect 9 0 6 1;
