#N canvas 147 224 450 300 10;
#X obj 256 13 r~ ramp;
#X obj 30 88 r~ tod-\$1;
#X obj 29 273 s~ toh-\$1;
#X obj 30 228 +~;
#X obj 120 273 delwrite~ \$1-del 2000;
#X obj 344 114 vd~ \$1-del;
#X obj 263 164 *~;
#X obj 171 118 clip~ 0 1;
#X obj 171 96 expr~ \$2;
#X obj 344 93 expr~ \$3;
#X connect 0 0 8 0;
#X connect 0 0 9 0;
#X connect 1 0 3 0;
#X connect 3 0 2 0;
#X connect 3 0 4 0;
#X connect 5 0 6 1;
#X connect 6 0 3 1;
#X connect 7 0 6 0;
#X connect 8 0 7 0;
#X connect 9 0 5 0;
