#N canvas 149 222 450 300 10;
#X obj 235 -6 r~ ramp;
#X obj 30 88 r~ tod-\$1;
#X obj 29 273 s~ toh-\$1;
#X obj 30 228 +~;
#X obj 227 259 delwrite~ \$1-del 2000;
#X obj 288 153 vd~ \$1-del;
#X obj 207 193 *~;
#X obj 115 147 clip~ 0 1;
#X obj 115 125 expr~ \$2+($v2*0);
#X obj 288 128 expr~ \$3+($v2*0);
#X obj 409 14 noise~;
#X obj 409 36 *~ 0.5;
#X obj 409 58 +~ 0.5;
#X obj 381 106 samphold~;
#X obj 118 11 noise~;
#X obj 118 33 *~ 0.5;
#X obj 118 55 +~ 0.5;
#X obj 208 104 samphold~;
#X obj 322 1 r~ ran\$1;
#X obj 294 40 expr~ $v1%$v2;
#X connect 0 0 8 0;
#X connect 0 0 9 0;
#X connect 0 0 19 0;
#X connect 1 0 3 0;
#X connect 3 0 2 0;
#X connect 3 0 4 0;
#X connect 5 0 6 1;
#X connect 6 0 3 1;
#X connect 7 0 6 0;
#X connect 8 0 7 0;
#X connect 9 0 5 0;
#X connect 10 0 11 0;
#X connect 11 0 12 0;
#X connect 12 0 13 0;
#X connect 13 0 9 1;
#X connect 14 0 15 0;
#X connect 15 0 16 0;
#X connect 16 0 17 0;
#X connect 17 0 8 1;
#X connect 18 0 19 1;
#X connect 19 0 13 1;
#X connect 19 0 17 1;
