#N canvas 162 213 450 300 10;
#X obj 208 74 r~ ramp;
#X obj 116 74 r~ tofi-\$1;
#X obj 185 173 vcf~ \$2;
#X obj 185 235 s~ tod-\$1;
#X obj 207 101 expr~ \$3;
#X connect 0 0 4 0;
#X connect 1 0 2 0;
#X connect 2 0 3 0;
#X connect 4 0 2 1;
