#N canvas 164 211 450 300 10;
#X obj 233 33 r~ ramp;
#X obj 36 108 r~ tofi-\$1;
#X obj 36 180 vcf~ \$2;
#X obj 36 242 s~ tod-\$1;
#X obj 264 86 noise~;
#X obj 264 108 *~ 0.5;
#X obj 264 130 +~ 0.5;
#X obj 264 152 samphold~;
#X obj 108 137 expr~ \$3+($v2*0);
#X obj 364 81 expr~ $v1%$v2;
#X obj 390 40 r~ ran\$1;
#X connect 0 0 8 0;
#X connect 0 0 9 0;
#X connect 1 0 2 0;
#X connect 2 0 3 0;
#X connect 4 0 5 0;
#X connect 5 0 6 0;
#X connect 6 0 7 0;
#X connect 7 0 8 1;
#X connect 8 0 2 1;
#X connect 9 0 7 1;
#X connect 10 0 9 1;
