#N canvas 151 222 450 300 10;
#X obj 164 25 r~ ramp;
#X obj 13 113 r~ toh-\$1;
#X obj 74 274 s~ top-\$1;
#X obj 13 185 samphold~;
#X obj 77 92 phasor~;
#X obj 60 239 *~;
#X obj 102 195 -~ 1;
#X obj 102 217 abs~;
#X obj 87 239 *~;
#X obj 91 144 clip~ 0 1;
#X obj 77 70 expr~ \$3+($v2*0);
#X obj 184 70 expr~ \$2+($v2*0);
#X obj 303 96 noise~;
#X obj 303 118 *~ 0.5;
#X obj 303 140 +~ 0.5;
#X obj 303 162 samphold~;
#X obj 303 49 expr~ $v1%ran;
#X obj 230 109 noise~;
#X obj 230 131 *~ 0.5;
#X obj 230 153 +~ 0.5;
#X obj 230 175 samphold~;
#X connect 0 0 10 0;
#X connect 0 0 11 0;
#X connect 0 0 16 0;
#X connect 1 0 3 0;
#X connect 1 0 8 0;
#X connect 3 0 5 0;
#X connect 4 0 3 1;
#X connect 5 0 2 0;
#X connect 6 0 7 0;
#X connect 7 0 8 1;
#X connect 8 0 2 0;
#X connect 9 0 6 0;
#X connect 9 0 5 1;
#X connect 10 0 4 0;
#X connect 11 0 9 0;
#X connect 12 0 13 0;
#X connect 13 0 14 0;
#X connect 14 0 15 0;
#X connect 15 0 11 1;
#X connect 16 0 15 1;
#X connect 16 0 20 1;
#X connect 17 0 18 0;
#X connect 18 0 19 0;
#X connect 19 0 20 0;
#X connect 20 0 10 1;
