#N canvas 149 224 450 300 10;
#X obj 242 28 r~ ramp;
#X obj 154 28 r~ toh-\$1;
#X obj 202 276 s~ top-\$1;
#X obj 117 184 samphold~;
#X obj 208 109 phasor~;
#X obj 164 238 *~;
#X obj 246 193 -~ 1;
#X obj 246 215 abs~;
#X obj 231 237 *~;
#X obj 247 159 clip~ 0 1;
#X obj 208 87 expr~ \$3;
#X obj 294 103 expr~ \$2;
#X connect 0 0 10 0;
#X connect 0 0 11 0;
#X connect 1 0 3 0;
#X connect 1 0 8 0;
#X connect 3 0 5 0;
#X connect 4 0 3 1;
#X connect 5 0 2 0;
#X connect 6 0 7 0;
#X connect 7 0 8 1;
#X connect 8 0 2 0;
#X connect 9 0 6 0;
#X connect 9 0 5 1;
#X connect 10 0 4 0;
#X connect 11 0 9 0;
