#N canvas 451 78 572 457 10;
#X obj 187 -30 r~ ramp;
#X obj 274 210 tabread4~ env;
#X obj 274 188 +~ 1;
#X obj 157 322 *~;
#X obj 158 114 samphold~;
#X obj 159 50 noise~;
#X obj 159 72 *~ 0.5;
#X obj 159 94 +~ 0.5;
#X obj 157 344 clip~ -1 1;
#X obj 161 404 dac~;
#X obj 33 140 expr~ \$1+($v2*0);
#X obj 274 232 pow~ \$3;
#X obj 158 382 *~;
#X obj 188 382 *~;
#X obj 117 233 +~ 0.5;
#X obj 171 234 -~ 0.5;
#X obj 171 256 abs~;
#X obj 147 185 expr~ \$4+($v2*0);
#X obj 147 207 *~ 0.5;
#X obj 274 144 expr~ $v1%(8000/$v2)/(8000/$v2);
#X obj 274 166 *~ 44100;
#X obj -2 330 delwrite~ \$0-hold 10;
#X obj 407 1 delread~ hold 10;
#X obj 386 50 expr~ \$2+($v2*0);
#X connect 0 0 10 0;
#X connect 0 0 17 0;
#X connect 0 0 19 0;
#X connect 0 0 23 0;
#X connect 1 0 11 0;
#X connect 2 0 1 0;
#X connect 3 0 8 0;
#X connect 4 0 10 1;
#X connect 4 0 17 1;
#X connect 4 0 21 0;
#X connect 5 0 6 0;
#X connect 6 0 7 0;
#X connect 7 0 4 0;
#X connect 8 0 12 0;
#X connect 8 0 13 0;
#X connect 10 0 3 0;
#X connect 11 0 3 1;
#X connect 12 0 9 0;
#X connect 13 0 9 1;
#X connect 14 0 12 1;
#X connect 15 0 16 0;
#X connect 16 0 13 1;
#X connect 17 0 18 0;
#X connect 18 0 14 0;
#X connect 18 0 15 0;
#X connect 19 0 4 1;
#X connect 19 0 20 0;
#X connect 20 0 2 0;
#X connect 22 0 23 1;
#X connect 23 0 19 1;
