#N canvas 804 328 442 300 10;
#N canvas 0 56 1360 712 gem 1;
#X obj 67 377 gemwin;
#X obj 587 153 gemhead;
#X obj 65 241 pix_texture;
#X obj 65 128 gemhead;
#X obj 65 211 pix_sig2pix;
#X obj 584 376 text2d;
#X obj 383 170 env~;
#X msg 441 271 string \$1 10 \$1 10 \$1;
#X obj 505 193 / 100;
#X obj 196 54 inlet~;
#X obj 242 54 inlet~;
#X obj 587 236 color;
#X obj 64 270 square 5;
#X msg -6 129 quality \$1;
#X obj -6 110 tgl 15 0 empty empty empty 17 7 0 10 -262144 -1 -1 0
1;
#X obj 574 103 block~ 512;
#X obj 301 290 random 600;
#X obj 301 313 - 300;
#X obj 301 336 / 100;
#X msg 67 355 destroy \, dimen 500 500 \, create \, 1;
#X obj 139 159 *~;
#X obj 169 159 *~;
#X obj 214 158 *~ 0.5;
#X obj 214 181 *~;
#X obj 300 54 phasor~ 0.01;
#X obj 300 114 phasor~ 0.012;
#X obj 300 84 phasor~ 0.011;
#X msg 301 253 bang;
#X obj 415 360 line;
#X obj 415 406 sel 0;
#X obj 587 190 translateXYZ 1 1 0;
#X obj 496 360 line;
#X obj 496 406 sel -3;
#X obj 383 193 / 100;
#X obj 383 240 *;
#X obj 347 412 line;
#X obj 347 458 sel 0;
#X obj 347 435 * 256;
#X obj 415 383 * 200;
#X msg 478 321 3 \, -3 1075;
#X msg 397 321 1 \, 0 1050;
#X msg 329 373 1 \, 0 1025;
#X obj 83 322 loadbang;
#X msg 165 306 0;
#X connect 1 0 30 0;
#X connect 2 0 12 0;
#X connect 3 0 4 0;
#X connect 4 0 2 0;
#X connect 6 0 8 0;
#X connect 6 0 27 0;
#X connect 6 0 33 0;
#X connect 7 0 5 0;
#X connect 8 0 11 1;
#X connect 9 0 20 0;
#X connect 9 0 22 0;
#X connect 10 0 21 0;
#X connect 10 0 22 0;
#X connect 11 0 5 0;
#X connect 13 0 2 0;
#X connect 14 0 13 0;
#X connect 16 0 17 0;
#X connect 17 0 18 0;
#X connect 18 0 30 1;
#X connect 19 0 0 0;
#X connect 20 0 4 0;
#X connect 21 0 4 1;
#X connect 22 0 23 0;
#X connect 22 0 6 0;
#X connect 23 0 4 2;
#X connect 24 0 20 1;
#X connect 25 0 23 1;
#X connect 26 0 21 1;
#X connect 27 0 16 0;
#X connect 28 0 38 0;
#X connect 29 0 40 0;
#X connect 29 1 5 1;
#X connect 30 0 11 0;
#X connect 31 0 32 0;
#X connect 32 0 39 0;
#X connect 32 1 30 2;
#X connect 33 0 34 0;
#X connect 34 0 7 0;
#X connect 35 0 37 0;
#X connect 36 0 41 0;
#X connect 36 1 34 1;
#X connect 37 0 36 0;
#X connect 38 0 29 0;
#X connect 39 0 31 0;
#X connect 40 0 28 0;
#X connect 41 0 35 0;
#X connect 42 0 19 0;
#X connect 42 0 43 0;
#X connect 42 0 41 0;
#X connect 42 0 40 0;
#X connect 42 0 39 0;
#X connect 43 0 14 0;
#X restore 199 124 pd gem;
#X obj 202 73 adc~;
#X connect 1 0 0 0;
#X connect 1 1 0 1;
