#N canvas 227 217 450 300 10;
#X obj 252 -10 r~ ramp;
#X obj 80 114 r~ top-\$1;
#X obj 82 247 dac~;
#X obj 80 186 *~;
#X obj 110 186 *~;
#X obj 154 162 expr~ 1-$v1;
#X obj 148 135 clip~ 0 1;
#X obj 355 10 noise~;
#X obj 355 32 *~ 0.5;
#X obj 355 54 +~ 0.5;
#X obj 292 126 samphold~;
#X obj 347 103 expr~ $v1%ran;
#X obj 148 113 expr~ \$2+($v2*0);
#X connect 0 0 11 0;
#X connect 0 0 12 0;
#X connect 1 0 3 0;
#X connect 1 0 4 0;
#X connect 3 0 2 0;
#X connect 4 0 2 1;
#X connect 5 0 4 1;
#X connect 6 0 3 1;
#X connect 6 0 5 0;
#X connect 7 0 8 0;
#X connect 8 0 9 0;
#X connect 9 0 10 0;
#X connect 10 0 12 1;
#X connect 11 0 10 1;
#X connect 12 0 6 0;
