#N canvas 225 219 450 300 10;
#X obj 208 13 r~ ramp;
#X obj 112 15 r~ top-\$1;
#X obj 106 248 dac~;
#X obj 80 186 *~;
#X obj 149 186 *~;
#X obj 207 103 expr~ 1-$v1;
#X obj 207 66 clip~ 0 1;
#X obj 207 44 expr~ \$2;
#X connect 0 0 7 0;
#X connect 1 0 3 0;
#X connect 1 0 4 0;
#X connect 3 0 2 0;
#X connect 4 0 2 1;
#X connect 5 0 4 1;
#X connect 6 0 3 1;
#X connect 6 0 5 0;
#X connect 7 0 6 0;
