#N canvas 1 56 450 300 10;
#X obj 171 145 phasor~ 0.125;
#X obj 171 168 *~ 64000;
#X obj 171 191 s~ ramp;
#X obj 171 97 r cps;
#X obj 171 120 / 8;
#X connect 0 0 1 0;
#X connect 1 0 2 0;
#X connect 3 0 4 0;
#X connect 4 0 0 0;
