#N canvas 359 62 878 478 10;
#X obj 135 -384 cnv 15 349 181 empty empty envelope\ table 56 12 0
14 -191407 -66577 0;
#X obj 492 -384 cnv 15 207 145 empty empty dynamic\ patching 20 12
0 14 -191407 -66577 0;
#X obj 406 -593 cnv 15 396 125 empty empty vim-to-pd\ communication
33 11 0 14 -162280 -66577 0;
#X obj 164 -489 s~ ramp;
#N canvas 1 78 450 300 (subpatch) 0;
#X array env 44100 float 0 black black;
#X coords 0 1 44099 0 200 140 1;
#X restore 148 -357 graph;
#X obj 367 -230 tabwrite~ env;
#X obj 367 -253 vline~;
#X obj 367 -297 t b b;
#X obj 367 -317 bng 15 250 50 0 empty empty empty 17 7 0 10 -262144
-1 -1;
#X obj 164 -554 phasor~;
#X obj 258 -532 value t;
#X obj 122 -635 r ramp;
#N canvas 472 339 488 301 ins 0;
#X obj 0 0 in sin($v1/4) 8*($v1%t<t/2) 1 sin($v1/t);
#X obj 0 0 in 0 0 0 0;
#X restore 506 -269 pd ins;
#X msg 78 -575 \; pd-ins clear;
#X obj 506 -325 list;
#X msg 506 -304 \; pd-ins obj 0 0 in \$1 \$2 \$3 \$4;
#X obj 506 -346 r code;
#X obj 164 -510 *~ 8000;
#X msg 258 -554 8000;
#X msg 367 -275 0 \, 1 20 \, 0 900 20;
#X obj 164 -532 *~ 256;
#X obj 164 -576 *~ 0.00390625;
#X obj 540 -562 netreceive 3005 0 old;
#X text 438 -507 autocmd BufWritePost *.gede silent exec "!pdsend 3005
< <afile>";
#X text 422 -529 ADD THIS LINE IN YOUR vimrc FILE AND FORGET ABOUT
THE PATCH:;
#X obj 258 -506 r comments;
#X obj 50 -634 loadbang;
#X obj 258 -575 loadbang;
#X obj 367 -361 loadbang;
#X msg 10 -574 \; pd dsp 1;
#X obj 367 -339 del 5;
#X text 643 -460 thank munshkr for this one;
#X connect 6 0 5 0;
#X connect 7 0 19 0;
#X connect 7 1 5 0;
#X connect 8 0 7 0;
#X connect 9 0 20 0;
#X connect 11 0 21 0;
#X connect 11 0 13 0;
#X connect 14 0 15 0;
#X connect 16 0 14 0;
#X connect 17 0 3 0;
#X connect 18 0 10 0;
#X connect 19 0 6 0;
#X connect 20 0 17 0;
#X connect 21 0 9 0;
#X connect 26 0 13 0;
#X connect 26 0 29 0;
#X connect 27 0 18 0;
#X connect 28 0 30 0;
#X connect 30 0 8 0;
#X coords 0 478 1 477 90 60 0;
