#N canvas 462 252 450 300 10;
#X obj 27 40 route hz;
#X obj 135 56 phasor~;
#X obj 135 33 r~ rex;
#X obj 135 79 s~ exp;
#X obj 27 16 netreceive 8080;
#X msg 27 107 \; pd-ramp clear \, obj 0 0 expr~ \$1 \, obj 0 30 s~
rex \, connect 0 0 1 0 \;;
#N canvas 1 56 450 300 ramp 0;
#X restore 14 164 pd ramp;
#N canvas 1 56 450 300 exp 0;
#X restore 14 185 pd exp;
#X msg 72 214 \; pd-exp clear \, obj 0 0 r~ exp \, obj 0 30 expr~ \$1
\, obj 0 60 expr~ \$2 \, obj 0 90 clip~ -1 1 \, obj 0 120 dac~ \, connect
0 0 1 0 \, connect 1 0 2 0 \, connect 2 0 3 0 \, connect 3 0 4 0 \,
connect 3 0 4 1 \;;
#X msg 336 64 \; pd dsp 1;
#X obj 72 183 list;
#X obj 336 15 loadbang;
#X obj 27 63 list;
#X connect 0 0 12 0;
#X connect 0 1 10 0;
#X connect 1 0 3 0;
#X connect 2 0 1 0;
#X connect 4 0 0 0;
#X connect 10 0 8 0;
#X connect 11 0 9 0;
#X connect 12 0 5 0;
