#N canvas 455 183 294 307 10;
#N canvas 1 56 513 492 rampcode 0;
#X obj 236 40 netreceive 8080;
#X obj 13 462 s~ ramp;
#X obj 161 354 r~ wave;
#X obj 161 395 clip~ -1 1;
#X obj 152 444 dac~;
#N canvas 1 61 450 300 ex 0;
#X restore 161 319 pd ex;
#X obj 341 145 list;
#X obj 13 79 loadbang;
#X msg 48 111 \; pd-ex clear \; pd dsp 1 \;;
#X obj 309 445 writesf~;
#X obj 364 360 random 9999;
#X msg 309 380 start;
#X msg 271 380 stop;
#X msg 364 381 open /tmp/\$1.wav;
#X obj 271 253 sel 0 1;
#X msg 13 169 1;
#X msg 341 165 \; pd-ex clear \, obj 0 0 r~ ramp \, obj 0 50 expr~
\$1 \, obj 0 500 s~ wave \, connect 0 0 1 0 \, connect 1 0 2 0 \;,
f 22;
#X obj 13 359 *~ 8000;
#X obj 290 328 t b b b;
#X obj 13 337 phasor~;
#X obj 13 272 / 128;
#X obj 13 381 *~ 128;
#X msg 306 127 0;
#X obj 236 65 route set rec zero;
#X connect 0 0 23 0;
#X connect 2 0 3 0;
#X connect 3 0 4 0;
#X connect 3 0 4 1;
#X connect 3 0 9 0;
#X connect 6 0 16 0;
#X connect 7 0 8 0;
#X connect 7 0 15 0;
#X connect 10 0 13 0;
#X connect 11 0 9 0;
#X connect 12 0 9 0;
#X connect 13 0 9 0;
#X connect 14 0 12 0;
#X connect 14 1 18 0;
#X connect 15 0 20 0;
#X connect 17 0 21 0;
#X connect 18 1 11 0;
#X connect 18 2 10 0;
#X connect 19 0 17 0;
#X connect 20 0 19 0;
#X connect 21 0 1 0;
#X connect 22 0 19 1;
#X connect 23 0 20 0;
#X connect 23 1 14 0;
#X connect 23 2 22 0;
#X connect 23 3 6 0;
#X restore 105 70 pd rampcode;
#X text 95 8 Rampcode 0.7.0;
#X text 25 27 Live coding system \, inspired by bytebeat;
#X text 181 70 Port: 8080;
#X text 23 230 https://github.com/pndmix/atom-rampcode;
#X text 51 153 https://github.com/gabochi/rampcode;
#X text 22 206 Atom package:;
#X text 49 130 Source:;
#X text 117 285 http://xorgede.bandcamp.com/;
