#N canvas 0 56 1360 712 24;
#X obj 431 172 text define -k code;
#A set;
#N canvas 0 56 1360 712 stuff 1;
#X obj 450 119 s~ ramp;
#X obj 11 271 keyname;
#X obj 106 352 sel Alt_L;
#X obj 106 434 text get code;
#X msg 106 393 0;
#X obj 106 473 list;
#X msg 1045 95 \; pd dsp 1;
#X obj 1045 57 loadbang;
#N canvas 1 56 450 300 code 0;
#X restore 983 563 pd code;
#X msg 106 532 \; pd-code clear \, obj 0 50 expexp \$1 \$2 \, obj 0
0 dummy \;, f 29;
#X obj 698 262 r~ wave;
#X obj 636 343 lop~ 50;
#X obj 661 525 dac~;
#X obj 106 310 spigot;
#X obj 187 275 tgl 30 0 empty empty empty 17 7 0 10 -262144 -1 -1 0
1;
#X obj 450 4 r cps;
#X obj 450 80 phasor~ 0.25;
#X obj 299 439 r ramp;
#X obj 12 6 netreceive 8080 0 old;
#X obj 299 478 print;
#X obj 688 457 clip~ -1 1;
#X obj 636 383 *~ 1;
#X obj 745 382 *~ 0.1;
#X obj 745 342 hip~ 50;
#X msg 1045 170 \; pd-code clear \;;
#X obj 187 235 inlet;
#X text 10 43 Receiving port for msgs;
#X text 541 5 Cycles per second;
#X text 9 182 Read text object or msgs;
#X text 810 259 Output wave;
#X text 853 342 Custom eq;
#X text 950 5 Init sound \, clear subp;
#X text 800 609 Subp for external dynamic creation;
#X text 102 630 Dynamic creation;
#X obj 23 590 print;
#X connect 1 1 13 0;
#X connect 2 0 4 0;
#X connect 3 0 5 0;
#X connect 4 0 3 0;
#X connect 5 0 9 0;
#X connect 5 0 34 0;
#X connect 7 0 6 0;
#X connect 7 0 24 0;
#X connect 10 0 11 0;
#X connect 10 0 23 0;
#X connect 11 0 21 0;
#X connect 13 0 2 0;
#X connect 14 0 13 1;
#X connect 15 0 16 0;
#X connect 16 0 0 0;
#X connect 17 0 19 0;
#X connect 17 0 5 0;
#X connect 20 0 12 0;
#X connect 20 0 12 1;
#X connect 21 0 20 0;
#X connect 22 0 20 0;
#X connect 23 0 22 0;
#X connect 25 0 14 0;
#X restore 434 337 pd stuff;
#X obj 434 304 tgl 30 0 empty empty MACRO 17 7 0 10 -262144 -1 -1 0
1;
#X text 429 215 You can write your ramp code here or;
#X text 430 248 send it to 8080 port.;
#X text 431 377 Toggle the MACRO to use the text object;
#X text 436 502 Valid msgs: ramp \$1 \$2 \; cps \$1 \;;
#X text 433 413 but remember you can't send cps msgs that way.;
#X text 438 605 cps \$1 = 1 by default (4 cycles loop);
#X text 439 554 where ramp \$2 = f(ramp \$1) and;
#X text 428 30 RAMPCODE;
#X connect 2 0 1 0;
