#N canvas 1 55 1009 544 10;
#X obj 461 131 netreceive 8080;
#X obj 13 342 s~ ramp;
#X obj 310 407 r~ wave;
#X obj 310 448 clip~ -1 1;
#X obj 301 497 dac~;
#N canvas 1 61 450 300 ex 0;
#X restore 819 152 pd ex;
#X obj 773 397 list;
#X obj 13 79 loadbang;
#X msg 48 111 \; pd-ex clear \; pd dsp 1 \;;
#X obj 531 492 writesf~;
#X obj 591 407 random 9999;
#X msg 531 427 start;
#X msg 488 427 stop;
#X msg 591 428 open /tmp/\$1.wav;
#X obj 544 375 t b b;
#X obj 505 280 sel 0 1;
#X obj 461 156 route set rec;
#X msg 13 169 1;
#X text 96 77 Start up instructions;
#X text 132 277 The ramp (+8000 per second by default);
#X text 232 374 Receive the expression output;
#X text 773 130 Expression subpatch;
#X text 816 395 Update subpatch expression;
#X text 381 105 Receive messages via pdsend port 8080;
#X text 552 321 Record options;
#X msg 773 417 \; pd-ex clear \, obj 0 0 r~ ramp \, obj 0 50 expr~
\$1 \, obj 0 500 s~ wave \, connect 0 0 1 0 \, connect 1 0 2 0 \;,
f 22;
#X obj 13 277 phasor~;
#X obj 13 250 / 16;
#X obj 13 308 expr~ $v1*16*8000;
#X text 349 6 *** RAMPCODE 0.5.1 by Gabochi (April 2019) ***;
#X connect 0 0 16 0;
#X connect 2 0 3 0;
#X connect 3 0 4 0;
#X connect 3 0 4 1;
#X connect 3 0 9 0;
#X connect 6 0 25 0;
#X connect 7 0 8 0;
#X connect 7 0 17 0;
#X connect 10 0 13 0;
#X connect 11 0 9 0;
#X connect 12 0 9 0;
#X connect 13 0 9 0;
#X connect 14 0 11 0;
#X connect 14 1 10 0;
#X connect 15 0 12 0;
#X connect 15 1 14 0;
#X connect 16 0 27 0;
#X connect 16 1 15 0;
#X connect 16 2 6 0;
#X connect 17 0 27 0;
#X connect 26 0 28 0;
#X connect 27 0 26 0;
#X connect 28 0 1 0;
