#N canvas 355 78 878 558 10;
#X obj 4 -349 cnv 15 100 60 empty empty envelopes 20 12 0 14 -233017
-66577 0;
#X obj 432 -303 cnv 15 100 60 empty empty dynamic_patching 20 12 0
14 -233017 -66577 0;
#X obj 349 -542 cnv 15 100 60 empty empty editor-to-pd 20 12 0 14 -233017
-66577 0;
#X obj 193 -409 s~ ramp;
#N canvas 1 78 450 300 (subpatch) 0;
#X array env-0 44100 float 0;
#X coords 0 1 44099 0 100 70 1 0 0;
#X restore 41 -305 graph;
#X obj 172 -191 vline~;
#X obj 246 -250 t b b;
#X obj 246 -270 bng 15 250 50 0 empty empty empty 17 7 0 10 -262144
-1 -1;
#X obj 193 -474 phasor~;
#X obj 144 -555 r ramp;
#N canvas 466 339 488 301 ins 0;
#X obj 0 0 in min(sin($v1/($v1/t8%8+1)+sin($v1/2)*sin($v1/900)*5)\\\,0.5)*sin($v1/1100)
8 4 0 $v2*1000 0.8;
#X obj 10 10 nul;
#X obj 0 0 in min(sin($v1/16+sin($v1/16)*($v2*10+5))\\\,0)*0.3 ($v1/t8%10<4)*8
1 0 0 0;
#X obj 10 10 nul;
#X obj 0 0 in sin($v1/8+sin($v1/16)*1.25)*0.7 ($v1/t8%8<4)*8 10 0 0
0;
#X obj 10 10 nul;
#X obj 0 0 in sin($v1*sin($v1%16))*0.25 ($v1/t8%16%7==4)*8 1 0 0 0
;
#X obj 10 10 nul;
#X obj 0 0 in sin($v1*sin($v1))*0.25 ($v1/t8%16%6==1)*8 1 0 0 0;
#X obj 10 10 nul;
#X obj 0 0 in sin($v1+sin($v1)*sin($v1/1800)*999)*0.2 8+($v1/t8%12>8)*(($v1/t8%4<2)*4+4)
5 $v2*2-1 $v1%18000/18000*50 0.5;
#X obj 10 10 nul;
#X restore 464 -127 pd ins;
#X msg 78 -495 \; pd-ins clear;
#X obj 446 -245 list;
#X obj 446 -266 r code;
#X obj 193 -430 *~ 8000;
#X msg 172 -211 0 \, 1 20 \, 0 900 20;
#X obj 193 -452 *~ 256;
#X obj 193 -496 *~ 0.00390625;
#X obj 483 -511 netreceive 3005 0 old;
#X text 381 -436 autocmd BufWritePost *.gede silent exec "!pdsend 3005
< <afile>";
#X obj 464 -103 r comments;
#X obj 50 -554 loadbang;
#X obj 246 -319 loadbang;
#X msg 10 -494 \; pd dsp 1;
#X obj 246 -297 del 5;
#X text 374 -399 (thank munshkr for this one);
#X text 365 -458 OR ADD THIS LINE IN YOUR vimrc FILE:;
#X text 365 -484 SET pdsend 3005 < [yourfile] COMMAND IN YOUR FAVORITE
EDITOR;
#X msg 205 -134 0 \, 1 900 \, 0 20 900;
#X obj 172 -170 tabwrite~ env-0;
#N canvas 1 78 450 300 (subpatch) 0;
#X array env-1 44100 float 0;
#X coords 0 1 44099 0 100 70 1 0 0;
#X restore 41 -215 graph;
#X obj 205 -114 vline~;
#X obj 205 -93 tabwrite~ env-1;
#X msg 446 -224 \; pd-ins obj 0 0 in \$1 \$2 \$3 \$4 \$5 \$6 \, obj
10 10 nul \;, f 25;
#X obj 728 -276 cnv 15 100 60 empty empty somevalues... 20 12 0 14
-233017 -66577 0;
#X msg 751 -224 8000;
#X obj 751 -245 loadbang;
#X obj 751 -152 value t2;
#X obj 751 -102 value t4;
#X obj 751 -52 value t8;
#X obj 751 -202 value t1;
#X msg 751 -174 4000;
#X msg 751 -124 2000;
#X msg 751 -74 1000;
#X connect 5 0 29 0;
#X connect 6 0 15 0;
#X connect 6 0 28 0;
#X connect 6 1 29 0;
#X connect 6 1 32 0;
#X connect 7 0 6 0;
#X connect 8 0 16 0;
#X connect 9 0 17 0;
#X connect 9 0 11 0;
#X connect 12 0 33 0;
#X connect 13 0 12 0;
#X connect 14 0 3 0;
#X connect 15 0 5 0;
#X connect 16 0 14 0;
#X connect 17 0 8 0;
#X connect 21 0 11 0;
#X connect 21 0 23 0;
#X connect 22 0 24 0;
#X connect 24 0 7 0;
#X connect 28 0 31 0;
#X connect 31 0 32 0;
#X connect 35 0 40 0;
#X connect 36 0 35 0;
#X connect 36 0 41 0;
#X connect 36 0 42 0;
#X connect 36 0 43 0;
#X connect 41 0 37 0;
#X connect 42 0 38 0;
#X connect 43 0 39 0;
#X coords 0 558 1 557 90 60 0;
