#N canvas 522 288 195 243 10;
#X obj 17 8 netreceive 3005 0 old;
#N canvas 520 119 450 300 ramp 0;
#X obj 225 230 s~ ramp;
#X obj 225 160 / 128;
#X obj 225 206 expr~ $v1*(8000*128);
#X obj 263 59 r r;
#X obj 40 21 loadbang;
#X msg 40 210 \; pd dsp 1;
#X obj 225 183 phasor~;
#X msg 120 102 1;
#X connect 1 0 6 0;
#X connect 2 0 0 0;
#X connect 3 0 1 0;
#X connect 4 0 5 0;
#X connect 4 0 7 0;
#X connect 6 0 2 0;
#X connect 7 0 1 0;
#X restore 66 31 pd ramp;
#X obj 80 55 c 0;
#X obj 80 74 c 1;
#X obj 80 93 c 2;
#X obj 80 112 c 3;
#X text 8 214 rampcode 0.4.0 by GEDE;
