#N canvas 0 56 1360 712 10;
#X obj 204 60 expr~ \$1;
#X obj 204 83 expr~ \$2;
#X obj 207 186 +~;
#X obj 192 244 clip~ -1 1;
#X obj 278 391 dac~;
#X obj 344 184 max~ 0;
#X obj 420 183 min~ 0;
#X obj 420 213 abs~;
#X obj 344 242 expr~ 1-$v1;
#X obj 420 241 expr~ 1-$v1;
#X obj 384 122 expr~ \$3;
#X obj 278 302 *~;
#X obj 299 302 *~;
#X obj 232 133 hip~ 200;
#X obj 177 133 lop~ 200;
#X obj 177 156 *~ 0.7;
#X obj 232 156 *~ 0.3;
#X obj 64 161 vd~ \$0-d;
#X obj 62 293 delwrite~ \$0-d 1000;
#X obj 192 212 +~;
#X obj 64 181 *~;
#X obj 64 123 expr~ \$4;
#X obj 204 6 r~ ramp;
#X obj 79 142 expr~ \$5;
#X obj 278 325 clip~ -1 1;
#X obj 298 345 clip~ -1 1;
#X obj 326 22 r cut;
#X obj 326 45 unpack f f f f;
#X connect 0 0 1 0;
#X connect 1 0 13 0;
#X connect 1 0 14 0;
#X connect 2 0 19 1;
#X connect 3 0 11 0;
#X connect 3 0 12 0;
#X connect 3 0 18 0;
#X connect 5 0 8 0;
#X connect 6 0 7 0;
#X connect 7 0 9 0;
#X connect 8 0 11 1;
#X connect 9 0 12 1;
#X connect 10 0 5 0;
#X connect 10 0 6 0;
#X connect 11 0 24 0;
#X connect 12 0 25 0;
#X connect 13 0 16 0;
#X connect 14 0 15 0;
#X connect 15 0 2 0;
#X connect 16 0 2 1;
#X connect 17 0 20 0;
#X connect 19 0 3 0;
#X connect 20 0 19 0;
#X connect 21 0 17 0;
#X connect 22 0 0 0;
#X connect 22 0 10 0;
#X connect 22 0 21 0;
#X connect 22 0 23 0;
#X connect 23 0 20 1;
#X connect 24 0 4 0;
#X connect 25 0 4 1;
#X connect 26 0 27 0;
#X connect 27 0 14 1;
#X connect 27 1 15 1;
#X connect 27 2 13 1;
#X connect 27 3 16 1;
