#N canvas 488 279 195 243 10;
#X obj 17 8 netreceive 3005 0 old;
#N canvas 522 117 450 300 ramp 0;
#X obj 297 260 s~ ramp;
#X obj 297 190 / 128;
#X obj 297 236 expr~ $v1*(8000*128);
#X obj 297 169 r r;
#X obj 40 21 loadbang;
#X msg 40 210 \; pd dsp 1;
#X obj 118 223 v ran;
#X obj 129 176 r v;
#X obj 129 198 expr 8000/$f1;
#X msg 118 155 1000;
#X obj 297 212 phasor~;
#X msg 256 131 1;
#X connect 1 0 10 0;
#X connect 2 0 0 0;
#X connect 3 0 1 0;
#X connect 4 0 5 0;
#X connect 4 0 9 0;
#X connect 4 0 11 0;
#X connect 7 0 8 0;
#X connect 8 0 6 0;
#X connect 9 0 6 0;
#X connect 10 0 2 0;
#X connect 11 0 1 0;
#X restore 66 31 pd ramp;
#X obj 80 74 c 1;
#X obj 80 55 c 0;
#X obj 80 93 c 2;
#X obj 80 112 c 3;
#X obj 80 131 c 4;
#X obj 80 150 c 5;
#X obj 80 169 c 6;
#X obj 80 188 c 7;
#X text 13 214 rampcode 0.3.2 by GEDE;
