#N canvas 1 78 1351 689 10;
#X obj 585 -37 r~ ramp;
#X obj 801 92 +~ 1;
#X obj 571 427 *~;
#X obj 572 161 samphold~;
#X obj 389 -21 noise~;
#X obj 389 1 *~ 0.5;
#X obj 389 23 +~ 0.5;
#X obj 570 528 clip~ -1 1;
#X obj 558 616 dac~;
#X obj 304 290 expr~ \$1+($v2*0);
#X obj 965 178 pow~ \$3;
#X obj 496 575 *~;
#X obj 639 575 *~;
#X obj 474 481 +~ 0.5;
#X obj 715 475 -~ 0.5;
#X obj 715 497 abs~;
#X obj 514 291 expr~ \$4+($v2*0);
#X obj 514 313 *~ 0.5;
#X obj 801 70 *~ 44100;
#X obj 571 499 +~;
#X obj 827 602 delwrite~ \$0-del 1000;
#X obj 823 356 vd~ \$0-del;
#X obj 823 382 *~;
#X obj 1015 18 expr~ \$2;
#X obj 823 333 expr~ \$5+($v2*0);
#X obj 1047 309 expr~ \$6+($v2*0);
#X obj 801 48 expr~ $v1%(8000/$v2)/(8000/$v2);
#X msg 1096 84 set env-\$1;
#X obj 1096 62 r env;
#X obj 965 156 tabread4~ env-0;
#X obj 304 312 tabread~ sample;
#X connect 0 0 9 0;
#X connect 0 0 16 0;
#X connect 0 0 23 0;
#X connect 0 0 24 0;
#X connect 0 0 25 0;
#X connect 0 0 26 0;
#X connect 1 0 29 0;
#X connect 2 0 19 0;
#X connect 3 0 9 1;
#X connect 3 0 16 1;
#X connect 3 0 24 1;
#X connect 3 0 25 1;
#X connect 4 0 5 0;
#X connect 5 0 6 0;
#X connect 6 0 3 0;
#X connect 7 0 11 0;
#X connect 7 0 12 0;
#X connect 9 0 30 0;
#X connect 10 0 2 1;
#X connect 11 0 8 0;
#X connect 12 0 8 1;
#X connect 13 0 11 1;
#X connect 14 0 15 0;
#X connect 15 0 12 1;
#X connect 16 0 17 0;
#X connect 17 0 13 0;
#X connect 17 0 14 0;
#X connect 18 0 1 0;
#X connect 19 0 7 0;
#X connect 19 0 20 0;
#X connect 21 0 22 0;
#X connect 22 0 19 1;
#X connect 23 0 26 1;
#X connect 24 0 21 0;
#X connect 25 0 22 1;
#X connect 26 0 3 1;
#X connect 26 0 18 0;
#X connect 27 0 29 0;
#X connect 28 0 27 0;
#X connect 29 0 10 0;
#X connect 30 0 2 0;
