#N canvas 368 88 450 300 10;
#X obj 115 22 r~ ramp;
#X obj 74 232 clip~ -1 1;
#X obj 74 254 s~ tofi-\$1;
#X obj 74 142 tabread~ \$1-wave;
#X obj 74 204 *~;
#X obj 246 22 r~ \$1-samples;
#X obj 74 90 expr~ (\$3)%$v2;
#X obj 271 131 expr~ \$2;
#X connect 0 0 6 0;
#X connect 0 0 7 0;
#X connect 1 0 2 0;
#X connect 3 0 4 0;
#X connect 4 0 1 0;
#X connect 5 0 6 1;
#X connect 6 0 3 0;
#X connect 7 0 4 1;
