#N canvas 844 87 450 300 10;
#X obj 159 25 r~ ramp;
#X obj 74 232 clip~ -1 1;
#X obj 74 254 s~ tofi-\$1;
#X obj 296 78 noise~;
#X obj 296 100 *~ 0.5;
#X obj 296 122 +~ 0.5;
#X obj 296 144 samphold~;
#X obj 347 121 expr~ $v1%ran;
#X obj 74 142 tabread~ \$1-wave;
#X obj 74 90 expr~ \$3+($v2*0);
#X obj 74 204 *~;
#X obj 148 206 expr~ \$2+($v2*0);
#X obj 246 22 r~ \$1-samples;
#X connect 0 0 7 0;
#X connect 0 0 9 0;
#X connect 0 0 11 0;
#X connect 1 0 2 0;
#X connect 3 0 4 0;
#X connect 4 0 5 0;
#X connect 5 0 6 0;
#X connect 6 0 9 1;
#X connect 6 0 11 1;
#X connect 7 0 6 1;
#X connect 8 0 10 0;
#X connect 9 0 8 0;
#X connect 10 0 1 0;
#X connect 11 0 10 1;
#X connect 12 0 9 2;
