#N canvas 1 56 450 300 10;
#X obj 3 47 s~ ramp;
#X obj 3 6 netreceive 8079;
#N canvas 469 118 450 143 ch8080 0;
#N canvas 1 56 450 300 code-8080 0;
#X obj 0 50 ex 8080 0 0;
#X obj 0 0 dummy;
#X restore 72 104 pd code-8080;
#X obj 73 11 netreceive 8080;
#X obj 73 34 list;
#X msg 73 63 \; pd-code-8080 clear \, obj 0 50 ex 8080 \$1 \$2 \, obj
0 0 dummy \;;
#X connect 1 0 2 0;
#X connect 2 0 3 0;
#X restore 244 59 pd ch8080;
#X obj 25 120 r~ out-8080;
#X obj 100 120 r~ out-8081;
#N canvas 469 118 450 143 ch8081 0;
#X obj 73 34 list;
#X obj 73 11 netreceive 8081;
#N canvas 1 56 450 300 code-8081 0;
#X obj 0 50 ex 8081 0 0;
#X obj 0 0 dummy;
#X restore 72 104 pd code-8081;
#X msg 73 63 \; pd-code-8081 clear \, obj 0 50 ex 8081 \$1 \$2 \, obj
0 0 dummy \;;
#X connect 0 0 3 0;
#X connect 1 0 0 0;
#X restore 254 79 pd ch8081;
#X obj 312 179 r~ out-8083;
#N canvas 469 118 450 143 ch8082 0;
#X obj 73 34 list;
#X obj 73 11 netreceive 8082;
#N canvas 1 56 450 300 code-8082 0;
#X obj 0 50 ex 8082 0 0;
#X obj 0 0 dummy;
#X restore 72 104 pd code-8082;
#X msg 73 63 \; pd-code-8082 clear \, obj 0 50 ex 8082 \$1 \$2 \, obj
0 0 dummy \;;
#X connect 0 0 3 0;
#X connect 1 0 0 0;
#X restore 262 100 pd ch8082;
#N canvas 469 118 450 143 ch8083 0;
#X obj 73 34 list;
#X obj 73 11 netreceive 8083;
#X msg 73 63 \; pd-code-8083 clear \, obj 0 50 ex 8083 \$1 \$2 \, obj
0 0 dummy \;;
#N canvas 1 56 450 300 code-8083 0;
#X obj 0 50 ex 8083 0 0;
#X obj 0 0 dummy;
#X restore 72 104 pd code-8083;
#X connect 0 0 2 0;
#X connect 1 0 0 0;
#X restore 272 120 pd ch8083;
#X obj 234 179 r~ out-8082;
#X obj 3 26 phasor~ 0.0125;
#X obj 67 157 clip~ -1 1;
#X obj 235 216 clip~ -1 1;
#X obj 313 216 clip~ -1 1;
#X obj 57 203 dac~;
#X obj 270 251 dac~;
#X connect 1 0 10 0;
#X connect 3 0 11 0;
#X connect 4 0 11 0;
#X connect 6 0 13 0;
#X connect 9 0 12 0;
#X connect 10 0 0 0;
#X connect 11 0 14 0;
#X connect 11 0 14 1;
#X connect 12 0 15 0;
#X connect 13 0 15 1;
