#N canvas 234 78 887 581 10;
#X obj 351 381 s~ ramp;
#X obj 351 196 netreceive 3005 0 old;
#X obj 351 311 / 128;
#X obj 351 357 expr~ $v1*(8000*128);
#X obj 351 290 r r;
#X obj 351 333 phasor~ 0.0078125;
#X obj 395 221 loadbang;
#X msg 351 252 \; pd dsp 1;
#X obj 515 229 c 0;
#X obj 515 248 c 1;
#X obj 515 267 c 2;
#X obj 515 286 c 3;
#X obj 515 305 c 4;
#X obj 515 324 c 5;
#X obj 515 343 c 6;
#X obj 515 362 c 7;
#X obj 437 272 v ran;
#X msg 437 251 1000;
#X obj 476 223 r v;
#X connect 2 0 5 0;
#X connect 3 0 0 0;
#X connect 4 0 2 0;
#X connect 5 0 3 0;
#X connect 6 0 7 0;
#X connect 6 0 17 0;
#X connect 17 0 16 0;
#X connect 18 0 16 0;
